<?xml version="1.0" encoding="UTF-8" standalone="no"?>
<!-- Created with Inkscape (http://www.inkscape.org/) -->

<svg
   width="21.881124mm"
   height="21.879608mm"
   viewBox="0 0 21.881124 21.879608"
   version="1.1"
   id="svg1"
   xml:space="preserve"
   xmlns="http://www.w3.org/2000/svg"
   xmlns:svg="http://www.w3.org/2000/svg"><defs
     id="defs1" /><g
     id="layer1"
     transform="translate(188.43125,-306.91668)"><rect
       style="opacity:1;fill:#ffffff;stroke:#000000;stroke-width:0;stroke-dasharray:none"
       id="rect28"
       width="19.774923"
       height="16.873455"
       x="-186.32506"
       y="311.92194" /><path
       id="path28"
       style="opacity:1;fill:#2e6a5e;fill-opacity:1;stroke:#000000;stroke-width:0;stroke-dasharray:none"
       d="m -182.13875,306.91666 c -0.82353,0 -1.30298,0.15695 -1.59939,0.4129 l -0.007,0.003 -0.03,0.0305 -0.005,0.005 -5.1e-4,5.2e-4 c -0.0161,0.0154 -0.0315,0.031 -0.0465,0.047 -0.002,0.003 -0.005,0.005 -0.008,0.008 l -0.0656,0.0661 -0.0284,0.0413 -1.29605,1.7756 -2.60656,2.15388 -0.0196,0.0109 -0.0693,0.0698 -0.0114,0.0186 c 0.0273,-0.0285 0.0564,-0.0556 0.0868,-0.0816 -0.54368,0.46632 -0.58601,1.35909 -0.58601,1.35909 v 0.34726 l 0.002,0.006 v 13.13098 0.95601 1.51877 h 1.5198 1.39371 18.96525 v -17.72036 -2.63912 -1.51929 h -1.51928 -3.28507 -10.76162 v 5.2e-4 c -0.007,-4.7e-4 -0.0147,-5.2e-4 -0.0222,-5.2e-4 z m 3.30212,10.59574 h 0.99271 v 0.58291 h -0.99271 z m 5.4808,0.004 h 0.99426 v 1.12448 h 1.01803 v 0.83871 h -1.01803 v 2.09703 h 1.01803 v 0.83923 h -1.24282 l -5.2e-4,-5.2e-4 h -0.76895 z m -12.50414,0.006 h 0.9927 v 2.43965 h 0.8599 l 0.80408,-1.46089 h 1.12552 l -1.10485,1.8035 1.16789,2.1115 h -1.11879 l -0.82476,-1.61489 h -0.90899 v 1.61489 h -0.9927 z m 18.25418,0.97566 v 5.1e-4 0.97359 h -10e-4 v 2.944 h -2.51096 l -0.001,-10e-4 h -0.76792 v -0.76791 -0.0114 -1.45676 l 2.2872,-0.004 v -0.8351 h -2.14767 v -0.8387 h 3.13159 c 0.005,-0.002 0.009,-0.003 0.01,-0.003 z m -7.25072,0.002 h 0.91777 v 3.915 h -0.79788 l -5.2e-4,0.001 h -1.38699 v 0.97875 h -5.2e-4 v 4.362 h -2.22105 v 5.2e-4 h -0.90589 v -0.79737 -2.32078 -0.79685 h 0.79633 5.2e-4 1.33739 v -0.97927 h 5.1e-4 v -4.36253 h 2.26033 z m -6.75411,5.1e-4 h 0.76998 0.0631 1.28881 v 0.89504 h -1.1281 v 3.02049 h -0.9927 v -3.12539 h -0.001 z m 2.77399,0 h 0.99271 v 3.91553 h -0.99271 z m 2.7125,0.83923 v 2.23655 h 1.19166 v -2.23655 z m 7.5246,1.45211 -1.5167,0.002 v 0.81132 h 1.5167 z m -6.84609,3.05046 h 0.74001 0.14831 2.19263 v 2.19469 h -2.08928 v 0.88109 h 2.09548 v 0.8387 h -2.34714 l -5.2e-4,-5.1e-4 h -0.73949 v -0.73897 l -0.001,-0.001 v -2.43292 l 0.001,-5.2e-4 z m 3.4587,0 h 1.00666 l 0.67076,3.07578 h 0.58756 l 0.67076,-3.07578 h 0.99271 l -0.95033,3.91448 h -2.02779 z m -2.46703,0.78238 v 0.79271 l 1.22267,0.004 v -0.79685 z m -3.80545,0.0558 v 2.23707 h 1.14205 v -2.23707 z" /><path
       id="path33"
       style="opacity:1;fill:#ffffff;fill-opacity:1;stroke:#000000;stroke-width:0;stroke-dasharray:none"
       d="m -183.7371,307.32904 -0.008,0.003 -0.0357,0.0362 c 0.0141,-0.0134 0.0284,-0.0263 0.0434,-0.0393 z m -0.0899,0.0863 -4.09329,4.12533 -0.0114,0.0186 c 0.0974,-0.10148 0.21374,-0.18908 0.35243,-0.25218 0.8333,-0.37909 1.10794,-0.4258 3.27422,-0.25631 v -1.79421 c 0,0 -0.0378,-0.80233 0.21446,-1.418 0.0641,-0.15649 0.14719,-0.29902 0.26355,-0.42323 z" /><circle
       style="opacity:1;fill:#ffffff;fill-opacity:1;stroke:#000000;stroke-width:0;stroke-dasharray:none"
       id="path34"
       cx="-180.67197"
       cy="327.16956"
       r="0.6074506" /></g></svg>
